<svg xmlns="http://www.w3.org/2000/svg" width="47" height="23" viewBox="0 0 47 23"><g fill="none" fill-rule="evenodd" transform="translate(1 1)"><rect width="45" height="21" fill="#0078C8" rx="2"/><rect width="46" height="22" x="-.5" y="-.5" stroke="#FFF" opacity=".75" rx="2"/><path fill="#FFF" fill-rule="nonzero" d="M8.83864747,17.1445554 L6.8188002,17.1445554 L3.08278834,17.1445554 L3.08278834,16.680431 C3.42259683,16.680431 3.79777852,16.680431 4.10146119,16.4225842 C4.40570833,16.1645563 4.44126969,15.7348115 4.44126969,12.7609775 L4.44126969,11.6606499 L4.44126969,8.27407996 C4.44126969,5.23130585 4.40570833,4.87032022 4.10146119,4.61247334 C3.79777852,4.35462646 3.45815818,4.37181626 3.08278834,4.37181626 L3.08278834,3.89050208 L6.0499976,3.89050208 L9.05352084,3.89050208 C13.3793996,3.89050208 15.0058141,7.25988224 15.0058141,10.251087 C15.0060023,13.9814528 13.2185268,17.1445554 8.83864747,17.1445554 Z M8.49921529,4.45776522 L7.03367357,4.45776522 L7.01523435,16.5943011 C7.01523435,16.5943011 8.44559103,16.6116719 8.60627566,16.6116719 C10.7337478,16.6116719 12.3246009,14.4455771 12.3246009,10.6464522 C12.3247891,7.03641494 10.8944324,4.45776522 8.49921529,4.45776522 Z M27.5889017,4.33743667 C26.4629803,4.33743667 25.6586163,4.74999168 25.6226787,6.55510077 C25.6048039,7.36302099 25.5871173,10.251087 25.5871173,10.251087 L25.5871173,13.2770332 L25.5871173,13.294042 L25.5871173,17.1617452 L25.5692425,17.1617452 L24.7827533,17.1617452 L17.2029166,7.10499317 C17.2029166,7.89572359 17.2211677,8.99587028 17.2211677,10.5603223 C17.2211677,12.073024 17.2211677,13.6890454 17.2390424,14.4969656 C17.2746038,16.3020747 18.0789677,16.7148106 19.2052654,16.7148106 L19.2052654,17.1615643 L17.5427251,17.1615643 L14.3967683,17.1615643 L14.3967683,16.7148106 C15.5226897,16.7148106 16.32743,16.3020747 16.3629913,14.4969656 C16.3808661,13.6890454 16.3985527,10.5603223 16.3985527,10.5603223 L16.4168037,6.03922607 C15.6120635,4.92170865 15.3798798,4.40601489 14.3608306,4.33725573 L14.3608306,3.89032114 L16.1665572,3.89032114 C16.6311126,3.89032114 18.3830267,3.87313135 18.3830267,3.87313135 L24.7645023,12.227913 L24.7645023,10.251087 C24.7645023,8.73820434 24.7645023,7.36302099 24.7466275,6.55510077 C24.7110662,4.74999168 23.9067022,4.33743667 22.7804045,4.33743667 L22.7804045,3.89050208 L24.4429448,3.89050208 L27.5889017,3.89050208 L27.5889017,4.33743667 Z"/><path fill="#FFF" d="M36,9.75 L40.5,9.75 L40.5,11.25 L36,11.25 L36,15.75 L34.5,15.75 L34.5,11.25 L30,11.25 L30,9.75 L34.5,9.75 L34.5,5.25 L36,5.25 L36,9.75 Z"/></g></svg>