<svg xmlns="http://www.w3.org/2000/svg" width="82" height="15">
  <g fill="none" fill-rule="evenodd">
    <path fill="#23D0FF" d="M28.58 1.526h2.016V14H28.58V1.526zm3.96 3.132h1.8v.756h.072c.648-.486 1.548-.9 2.628-.9 1.512 0 2.304.684 2.304 2.322V14h-1.89V7.16c0-.774-.324-1.062-1.26-1.062-.702 0-1.35.252-1.764.468V14h-1.89V4.658zm7.704 0h1.998l1.512 5.58c.09.414.198.774.252 1.062.036.162.072.324.09.468h.072c.018-.126.054-.288.09-.45.054-.27.126-.666.252-1.08l1.512-5.58h1.836L45.068 14H43.07l-2.826-9.342zm12.006 9.486c-2.754 0-4.05-1.548-4.05-4.572v-.45c0-3.078 1.332-4.608 3.618-4.608 2.358 0 3.402 1.35 3.402 4.464v.954h-5.094c.054 1.944.828 2.7 2.43 2.7.99 0 1.764-.27 2.412-.612v1.314c-.486.414-1.44.81-2.718.81zm-.468-8.19c-.99 0-1.602.666-1.656 2.61h3.204c0-1.89-.45-2.61-1.548-2.61zm6.84 8.19c-1.026 0-1.872-.198-2.466-.54v-1.44c.594.234 1.224.486 2.214.486 1.152 0 1.584-.432 1.584-1.206 0-.72-.306-1.008-1.152-1.314l-.738-.27c-1.224-.45-1.908-1.17-1.908-2.61 0-1.728 1.098-2.736 3.096-2.736 1.08 0 1.692.216 2.142.45v1.458c-.486-.198-1.134-.414-1.98-.414-.936 0-1.458.27-1.458 1.044 0 .63.27.9 1.044 1.17l.684.234c1.458.504 2.124 1.188 2.124 2.754 0 1.926-1.152 2.934-3.186 2.934zm6.948-.036c-1.386 0-2.232-.558-2.232-2.196V6.134h-1.08V4.658h1.08v-2.16h1.872v2.16h1.818v1.476H65.21v5.49c0 .774.27.99.99.99.18 0 .342-.018.486-.036l.414-.09v1.26c-.288.198-.792.36-1.53.36zm6.138.036c-2.52 0-3.762-1.638-3.762-4.518V9.05c0-2.826 1.44-4.536 3.762-4.536 2.502 0 3.78 1.566 3.78 4.518v.558c0 2.862-1.386 4.554-3.78 4.554zm.018-1.476c1.242 0 1.818-1.098 1.818-2.826V8.87c0-2.07-.684-2.88-1.854-2.88-1.242 0-1.8 1.098-1.8 2.844v.972c0 1.944.666 2.862 1.836 2.862zm5.094-8.01h1.818v1.008h.072c.45-.63 1.206-1.134 2.052-1.134.198 0 .36.018.486.072v1.728c-.144-.018-.414-.036-.612-.036-.774 0-1.404.216-1.908.576V14H76.82V4.658z"/>
    <path fill="#FFF" fill-rule="nonzero" d="M6.35653761 14.641495H.50089029v-.4956689c.34569968 0 .72738583 0 1.03633338-.2753716.30952182-.2755649.34569969-.7345176.34569969-3.91047027v-4.7918527c0-3.24957838-.03617787-3.63509865-.34569969-3.91047027C1.22827612.98228964.88276785 1.00064775.50089029 1.00064775V.48662072h6.0742459c4.40087571 0 6.05548701 3.59838243 6.05548701 6.79288649.0001914 3.98390269-1.8182731 7.36198779-6.27408559 7.36198779zM6.01122076 1.09243829H4.52027123L4.50151234 14.0538423s1.45515448.0185514 1.61862488.0185514c2.16435567 0 3.78278913-2.3133149 3.78278913-6.37065001.00019142-3.85539594-1.45496307-6.6093054-3.89170559-6.6093054zM24.6688586.96393153c-1.1454412 0-1.9637503.4405946-2.000311 2.36838919-.0181846.86283108-.0361779 3.94718649-.0361779 3.94718649v7.38034599h-.818309L14.1028138 3.91958694c0 .84447297.0185675 2.01939189.0185675 3.69017297 0 1.61551351 0 3.34136889.0181847 4.20419999.0361778 1.9277946.8544869 2.3685824 2.000311 2.3685824v.4771176h-4.8918611v-.4771176c1.1454412 0 1.9641331-.4407878 2.000311-2.3685824.0181846-.8628311.0361779-4.20419999.0361779-4.20419999l.0185675-4.82837568c-.8186919-1.19347027-1.0549009-1.74421351-2.0916171-1.81764594V.48642748h1.837032c.4726094 0 2.2548961-.01835811 2.2548961-.01835811l6.4921099 8.92262027V7.27950721c0-1.61570676 0-3.08435541-.0181846-3.94718649-.0361779-1.92779459-.854487-2.36838919-2.0003111-2.36838919v-.4773108h4.8918611v.4773108z"/>
  </g>
</svg>
