<svg xmlns="http://www.w3.org/2000/svg" width="340" height="85" viewBox="0 0 340 85">
  <g fill="none">
    <path fill="#FFF" d="M31.031,73.611 L20.296,73.611 L0.44,73.611 L0.44,71.046 C2.246,71.046 4.24,71.046 5.854,69.621 C7.471,68.195 7.66,65.82 7.66,49.385 L7.66,43.304 L7.66,24.588 C7.66,7.772 7.471,5.777 5.854,4.352 C4.24,2.927 2.435,3.022 0.44,3.022 L0.44,0.362 L16.21,0.362 L32.173,0.362 C55.164,0.362 63.808,18.983 63.808,35.514 C63.809,56.13 54.309,73.611 31.031,73.611 M29.227,3.497 L21.438,3.497 L21.34,70.57 C21.34,70.57 28.942,70.666 29.796,70.666 C41.103,70.666 49.558,58.695 49.558,37.699 C49.559,17.748 41.957,3.497 29.227,3.497"/>
    <path fill="#FFF" d="M126.698,2.832 C120.714,2.832 116.439,5.112 116.248,15.088 C116.153,19.553 116.059,35.514 116.059,35.514 L116.059,52.237 L116.059,52.331 L116.059,73.706 L115.964,73.706 L111.784,73.706 L71.499,18.127 C71.499,22.497 71.596,28.577 71.596,37.223 C71.596,45.583 71.596,54.514 71.691,58.979 C71.88,68.955 76.155,71.236 82.141,71.236 L82.141,73.705 L73.305,73.705 L56.585,73.705 L56.585,71.236 C62.569,71.236 66.846,68.955 67.035,58.979 C67.13,54.514 67.224,37.223 67.224,37.223 L67.321,12.237 C63.044,6.061 61.81,3.211 56.394,2.831 L56.394,0.361 L65.991,0.361 C68.46,0.361 77.771,0.266 77.771,0.266 L111.687,46.439 L111.687,35.514 C111.687,27.153 111.687,19.553 111.592,15.088 C111.403,5.112 107.128,2.832 101.142,2.832 L101.142,0.362 L109.978,0.362 L126.698,0.362 L126.698,2.832 Z"/>
    <path fill="#000" d="M143.716 34.446L138.746 34.446 129.55 34.446 129.55 33.258C130.387 33.258 131.31 33.258 132.058 32.598 132.806 31.938 132.893 30.838 132.893 23.227L132.893 20.411 132.893 11.744C132.893 3.958 132.806 3.034 132.058 2.373 131.31 1.714 130.473 1.758 129.55 1.758L129.55.526 136.852.526 144.245.526C154.892.526 158.893 9.148 158.893 16.804 158.893 26.35 154.495 34.446 143.716 34.446M142.881 1.978L139.272 1.978 139.229 33.039C139.229 33.039 142.749 33.082 143.144 33.082 148.381 33.082 152.295 27.539 152.295 17.816 152.295 8.577 148.776 1.978 142.881 1.978M181.424 33.479C180.632 34.315 179.4 35.018 177.333 35.018 175.706 35.018 173.065 34.05 172.67 31.234 171.041 34.623 167.61 35.018 165.982 35.018 162.419 35.018 158.504 33.126 158.504 28.155 158.504 21.732 165.323 20.544 172.627 19.048 172.627 16.057 172.538 14.121 172.538 13.944 172.538 10.865 171.703 9.633 169.502 9.633 166.643 9.633 165.587 11.569 166.158 14.957 166.335 15.924 165.411 16.232 163.431 16.232 161.364 16.232 160.308 15.396 160.308 13.769 160.308 10.865 165.148 8.05 170.866 8.05 176.982 8.05 178.83 9.985 178.83 16.848L178.83 28.067C178.83 31.234 179.094 32.247 180.237 32.247 180.985 32.247 181.425 31.807 181.425 31.807L181.425 33.479 181.424 33.479zM172.626 20.368C168.402 21.688 164.53 21.908 164.53 28.243 164.53 30.707 165.454 32.555 168.227 32.555 169.193 32.555 172.494 31.674 172.625 26.527 172.67 24.416 172.67 21.424 172.626 20.368z"/>
    <path fill="#000" d="M193.001,45.27 C184.292,45.27 179.672,42.717 179.672,38.186 C179.672,35.854 181.694,34.182 184.642,34.182 C185.171,34.182 186.754,34.358 187.283,35.062 C186.007,36.118 185.39,37.262 185.39,38.626 C185.39,41.881 187.238,43.907 192.914,43.907 C197.444,43.907 200.833,42.278 200.833,38.714 C200.833,36.383 198.939,35.326 193.574,34.755 C185.039,33.831 181.386,32.423 181.386,28.947 C181.386,25.603 184.686,24.24 187.766,24.24 C183.849,23.58 181.429,20.852 181.429,16.673 C181.429,11.393 185.655,8.05 192.782,8.05 C193.528,8.05 194.322,8.093 195.112,8.181 C195.246,8.226 195.333,8.27 195.465,8.27 C195.596,8.27 195.686,8.313 195.818,8.313 C197.754,8.621 200.525,8.578 205.717,8.578 L205.717,10.689 L201.096,10.689 C202.55,12.009 203.516,13.945 203.516,16.673 C203.516,21.688 199.733,25.428 192.87,25.428 L191.903,25.428 C188.075,25.428 186.05,25.692 186.05,27.012 C186.05,28.111 187.899,28.068 194.014,28.639 C201.228,29.343 205.76,30.487 205.76,36.866 C205.76,42.188 201.273,45.27 193.001,45.27 M192.738,9.676 C189.79,9.676 188.163,12.668 188.163,16.98 C188.163,21.291 189.835,24.195 192.783,24.195 C195.773,24.195 197.268,21.335 197.268,16.98 C197.268,12.36 195.465,9.676 192.738,9.676"/>
    <path fill="#000" d="M226.091,27.583 C224.947,30.619 221.647,34.843 216.06,34.843 C208.624,34.843 204.709,30.53 204.709,20.984 C204.709,15.749 207.173,8.005 215.927,8.005 C220.9,8.005 226.002,10.953 226.047,21.116 L211.088,21.116 C211.088,26.043 212.012,32.07 217.16,32.07 C220.679,32.07 223.847,29.035 224.947,26.879 L226.091,27.583 Z M220.02,19.444 C220.02,12.581 218.568,9.59 215.664,9.59 C212.188,9.59 211.134,13.944 211.134,19.444 L220.02,19.444 Z"/>
    <path fill="#000" d="M251.35 34.446L245.28 34.446 239.384 34.446 239.384 33.259C240.131 33.259 240.879 33.259 241.54 32.598 242.156 31.938 242.288 30.838 242.243 23.227L242.199 16.892C242.199 12.58 241.364 10.908 238.239 10.908 236.833 10.908 235.511 11.656 234.146 13.065L234.146 18.608 234.146 23.227C234.146 31.014 234.369 31.938 234.983 32.598 235.643 33.259 236.303 33.259 237.051 33.259L237.051 34.446 230.979 34.446 225.084 34.446 225.084 33.259C225.832 33.259 226.58 33.259 227.241 32.598 227.854 31.938 227.944 30.838 227.944 23.227L227.944 19.267C227.944 11.481 227.854 10.865 227.196 10.249 226.449 9.545 225.434 9.633 225.04 9.633L225.04 8.401 229.131 8.401 234.146 8.401 234.146 10.997C235.909 9.237 238.239 7.917 240.792 7.917 247.04 7.917 248.446 12.009 248.446 16.673L248.446 23.227C248.446 31.014 248.667 31.938 249.283 32.598 249.943 33.259 250.601 33.259 251.349 33.259L251.349 34.446 251.35 34.446zM261.149 34.931C258.508 34.931 256.442 34.446 253.801 34.446L252.57 34.446 252.57 26.264 253.801 26.264C254.241 30.135 256.749 33.479 260.269 33.479 262.073 33.479 265.021 32.598 265.021 29.211 265.021 26.439 261.677 25.207 258.598 23.755 255.385 22.216 251.822 20.896 251.822 15.704 251.822 9.721 257.234 7.918 260.489 7.918 263.129 7.918 266.427 8.446 267.396 8.446L268.144 8.446 268.144 15.969 266.913 15.969C266.56 10.997 262.908 9.502 260.754 9.502 257.19 9.502 256.002 10.954 256.002 13.153 256.002 18.306 269.421 16.362 269.421 26.351 269.42 31.895 265.503 34.931 261.149 34.931zM251.954 33.258L251.954 34.445 251.954 33.258zM162.521 40.912C159.751 40.912 157.771 41.968 157.682 46.588 157.637 48.655 157.594 56.047 157.594 56.047L157.594 63.789 157.594 63.834 157.594 73.732 157.55 73.732 155.615 73.732 136.96 47.995C136.96 50.019 137.004 52.834 137.004 56.838 137.004 60.711 137.004 64.846 137.049 66.913 137.136 71.532 139.116 72.588 141.888 72.588L141.888 73.733 137.796 73.733 130.054 73.733 130.054 72.588C132.826 72.588 134.804 71.532 134.893 66.913 134.938 64.846 134.981 56.838 134.981 56.838L135.024 45.268C133.045 42.409 132.473 41.088 129.965 40.913L129.965 39.769 134.409 39.769C135.553 39.769 139.864 39.725 139.864 39.725L155.57 61.106 155.57 56.047C155.57 52.176 155.57 48.655 155.526 46.588 155.439 41.968 153.459 40.912 150.687 40.912L150.687 39.768 154.778 39.768 162.521 39.768 162.521 40.912z"/>
    <path fill="#000" d="M193.895,66.824 C192.75,69.861 189.452,74.085 183.865,74.085 C179.861,74.085 176.87,72.854 174.977,70.213 C172.734,73.337 169.654,74.26 166.618,74.26 C163.32,74.26 159.271,72.367 159.271,67.397 C159.271,61.151 166.178,59.259 172.513,58.686 C172.513,55.694 172.426,53.364 172.426,53.186 C172.426,50.108 171.589,48.875 169.389,48.875 C166.529,48.875 165.033,50.811 165.606,54.199 C165.78,55.166 164.857,55.473 162.877,55.473 C160.81,55.473 159.754,54.637 159.754,53.01 C159.754,50.107 165.033,47.291 170.753,47.291 C173.613,47.291 175.503,48.17 176.736,49.622 C178.408,48.17 180.695,47.245 183.73,47.245 C188.703,47.245 193.805,50.194 193.85,60.356 L178.891,60.356 C178.891,65.284 179.815,71.311 184.963,71.311 C188.482,71.311 191.65,68.276 192.749,66.12 L193.895,66.824 Z M172.513,60.314 C169.346,60.533 165.3,61.15 165.3,67.486 C165.3,70.607 166.663,71.884 168.993,71.884 C170.578,71.884 172.822,70.739 174.185,68.848 C173.084,66.693 172.513,63.878 172.513,60.314 Z M187.825,58.686 C187.825,51.823 186.371,48.832 183.469,48.832 C179.992,48.832 178.938,53.186 178.938,58.686 L187.825,58.686 Z"/>
    <path fill="#000" d="M209.43 52.571C209.078 53.407 208.286 53.362 207.625 52.835 206.877 52.264 205.515 51.119 204.634 51.119 203.447 51.119 201.95 52.264 201.95 55.958L201.95 57.85 201.95 62.469C201.95 70.256 202.125 71.18 202.83 71.84 203.579 72.501 204.414 72.501 205.25 72.501L205.25 73.688 198.782 73.688 192.888 73.688 192.888 72.501C193.635 72.501 194.382 72.501 195.042 71.84 195.659 71.18 195.745 70.08 195.745 62.469L195.745 58.51C195.745 50.723 195.659 50.108 194.998 49.491 194.25 48.787 193.239 48.875 192.842 48.875L192.842 47.643 196.934 47.643 201.95 47.643 201.95 51.206C203.139 48.435 204.985 47.115 207.538 47.115 209.121 47.115 211.189 48.172 210.484 49.974 209.782 51.734 209.914 51.383 209.43 52.571M223.11 73.689L217.04 73.689 211.144 73.689 211.144 72.5C211.893 72.5 212.641 72.5 213.299 71.84 213.916 71.181 214.004 70.08 214.004 62.469L214.004 58.51C214.004 50.723 213.916 50.108 213.256 49.49 212.509 48.787 211.496 48.875 211.101 48.875L211.101 47.643 215.191 47.643 220.208 47.643 220.208 57.85 220.208 62.469C220.208 70.257 220.429 71.181 221.043 71.84 221.704 72.5 222.363 72.5 223.111 72.5L223.111 73.689 223.11 73.689zM216.775 46.236C214.707 46.236 213.081 44.519 213.081 42.495 213.081 40.471 214.707 38.844 216.775 38.844 218.842 38.844 220.47 40.471 220.47 42.495 220.47 44.519 218.842 46.236 216.775 46.236zM250.79 73.688L244.72 73.688 238.824 73.688 238.824 72.502C239.571 72.502 240.319 72.502 240.978 71.84 241.594 71.18 241.728 70.08 241.683 62.469L241.639 56.135C241.639 51.823 240.804 50.152 237.679 50.152 236.271 50.152 234.951 50.899 233.586 52.307L233.586 57.85 233.586 62.469C233.586 70.256 233.809 71.18 234.424 71.84 235.083 72.502 235.743 72.502 236.491 72.502L236.491 73.688 230.42 73.688 224.523 73.688 224.523 72.502C225.274 72.502 226.022 72.502 226.68 71.84 227.295 71.18 227.385 70.08 227.385 62.469L227.385 58.51C227.385 50.723 227.295 50.108 226.637 49.491 225.888 48.787 224.876 48.875 224.482 48.875L224.482 47.643 228.572 47.643 233.587 47.643 233.587 50.24C235.348 48.479 237.68 47.16 240.232 47.16 246.479 47.16 247.887 51.253 247.887 55.915L247.887 62.47C247.887 70.257 248.108 71.181 248.724 71.841 249.381 72.503 250.042 72.503 250.79 72.503L250.79 73.688z"/>
    <path fill="#000" d="M274.026,49.931 L269.406,49.931 C270.857,51.25 271.827,53.187 271.827,55.914 C271.827,60.93 268.043,64.67 261.179,64.67 L260.211,64.67 C256.384,64.67 254.358,65.152 254.358,66.474 C254.358,67.573 256.206,67.53 262.322,68.101 C269.537,68.805 273.632,69.993 273.632,76.108 C273.632,81.431 269.186,84.511 261.311,84.511 C252.6,84.511 247.98,82.224 247.98,78.088 C247.98,75.756 250.004,74.084 252.952,74.084 C253.479,74.084 255.064,74.26 255.592,74.964 C254.317,76.02 253.7,77.164 253.7,78.527 C253.7,81.387 255.549,83.148 261.222,83.148 C265.755,83.148 268.701,81.255 268.701,77.955 C268.701,75.712 266.987,74.789 261.884,74.216 C253.348,73.291 249.696,71.885 249.696,68.408 C249.696,65.064 252.995,63.482 256.075,63.482 C252.16,62.822 249.74,60.093 249.74,55.914 C249.74,50.635 253.965,47.291 261.092,47.291 C261.839,47.291 262.632,47.334 263.424,47.423 C263.555,47.468 263.643,47.512 263.776,47.512 C263.909,47.512 263.995,47.555 264.127,47.555 C266.065,47.864 268.834,47.821 274.028,47.821 L274.028,49.931 L274.026,49.931 Z M261.047,48.918 C258.098,48.918 256.471,51.91 256.471,56.223 C256.471,60.534 258.143,63.438 261.09,63.438 C264.081,63.438 265.577,60.579 265.577,56.223 C265.578,51.603 263.774,48.918 261.047,48.918 Z"/>
    <path fill="#000" d="M283.183,74.173 C280.542,74.173 278.475,73.688 275.835,73.688 L274.603,73.688 L274.603,65.506 L275.835,65.506 C276.274,69.377 278.783,72.721 282.303,72.721 C284.106,72.721 287.055,71.84 287.055,68.453 C287.055,65.681 283.711,64.449 280.631,62.996 C277.419,61.457 273.855,60.138 273.855,54.945 C273.855,48.964 279.267,47.16 282.522,47.16 C285.163,47.16 288.461,47.687 289.43,47.687 L290.178,47.687 L290.178,55.21 L288.946,55.21 C288.593,50.237 284.941,48.743 282.788,48.743 C279.224,48.743 278.036,50.194 278.036,52.393 C278.036,57.539 291.455,55.606 291.455,65.591 C291.455,71.137 287.538,74.173 283.183,74.173 Z M273.987,72.5 L273.987,73.688 L273.987,72.5 Z"/>
    <path fill="#000" d="M302.633 73.688L296.563 73.688 290.667 73.688 290.667 72.502C291.415 72.502 292.163 72.502 292.823 71.84 293.438 71.18 293.525 70.08 293.525 62.469L293.525 50.635C293.525 42.847 293.438 42.231 292.778 41.615 292.032 40.912 291.02 41 290.624 41L290.624 39.768 294.715 39.768 299.731 39.768 299.731 49.975 299.731 62.469C299.731 70.256 299.952 71.18 300.567 71.84 301.228 72.502 301.886 72.502 302.634 72.502L302.634 73.688 302.633 73.688zM316.016 73.689L309.943 73.689 304.048 73.689 304.048 72.5C304.797 72.5 305.545 72.5 306.205 71.84 306.821 71.181 306.908 70.08 306.908 62.469L306.908 58.51C306.908 50.723 306.821 50.108 306.16 49.49 305.413 48.787 304.402 48.875 304.005 48.875L304.005 47.643 308.097 47.643 313.113 47.643 313.113 57.85 313.113 62.469C313.113 70.257 313.333 71.181 313.948 71.84 314.609 72.5 315.267 72.5 316.016 72.5L316.016 73.689zM309.68 46.236C307.614 46.236 305.986 44.519 305.986 42.495 305.986 40.471 307.614 38.844 309.68 38.844 311.749 38.844 313.376 40.471 313.376 42.495 313.376 44.519 311.75 46.236 309.68 46.236zM339.869 48.566C338.066 48.962 337.361 49.05 336.569 51.251L328.516 74.26 326.23 74.26 319.542 55.299 318.222 51.692C317.344 49.272 316.374 48.963 314.747 48.567L314.747 47.643 327.769 47.643 327.769 48.567C326.052 48.832 324.954 49.536 324.954 50.416 324.954 51.12 325.218 52.043 326.141 54.64L329.925 65.33C329.925 65.33 334.501 52.747 334.501 50.504 334.501 49.273 333.224 48.832 331.818 48.567L331.818 47.643 339.868 47.643 339.868 48.566 339.869 48.566z"/>
  </g>
</svg>